<?xml version="1.0" encoding="UTF-8"?>
<svg width="1349px" height="467px" viewBox="0 0 1349 467" version="1.1" xmlns="http://www.w3.org/2000/svg" xmlns:xlink="http://www.w3.org/1999/xlink">
    <!-- Generator: Sketch 64 (93537) - https://sketch.com -->
    <title>Group 7</title>
    <desc>Created with Sketch.</desc>
    <defs>
        <path d="M1239,55.8255272 C1239,25.014941 1219.05139,-5.68434189e-14 1194.48263,-5.68434189e-14 L44.5185739,-5.68434189e-14 C19.9481268,-5.68434189e-14 0,25.014941 0,55.8255272 L0,167.475377 C0,198.285963 19.9481268,223.300301 44.5185739,223.300301 L44.5185739,312.912435 L150.398947,223.300301 L1194.48263,223.300301 C1219.05139,223.300301 1239,198.285963 1239,167.475377 L1239,55.8255272 Z" id="path-1"></path>
        <filter x="-4.3%" y="-16.9%" width="108.9%" height="138.8%" filterUnits="objectBoundingBox" id="filter-2">
            <feMorphology radius="5" operator="dilate" in="SourceAlpha" result="shadowSpreadOuter1"></feMorphology>
            <feOffset dx="2" dy="2" in="shadowSpreadOuter1" result="shadowOffsetOuter1"></feOffset>
            <feGaussianBlur stdDeviation="13" in="shadowOffsetOuter1" result="shadowBlurOuter1"></feGaussianBlur>
            <feColorMatrix values="0 0 0 0 0   0 0 0 0 0   0 0 0 0 0  0 0 0 0.0755299388 0" type="matrix" in="shadowBlurOuter1"></feColorMatrix>
        </filter>
        <filter x="-3.4%" y="-13.6%" width="107.2%" height="132.1%" filterUnits="objectBoundingBox" id="filter-3">
            <feMorphology radius="8" operator="erode" in="SourceAlpha" result="shadowSpreadInner1"></feMorphology>
            <feGaussianBlur stdDeviation="4.5" in="shadowSpreadInner1" result="shadowBlurInner1"></feGaussianBlur>
            <feOffset dx="0" dy="0" in="shadowBlurInner1" result="shadowOffsetInner1"></feOffset>
            <feComposite in="shadowOffsetInner1" in2="SourceAlpha" operator="arithmetic" k2="-1" k3="1" result="shadowInnerInner1"></feComposite>
            <feColorMatrix values="0 0 0 0 0.594344429   0 0 0 0 0.594344429   0 0 0 0 0.594344429  0 0 0 0.0452906469 0" type="matrix" in="shadowInnerInner1"></feColorMatrix>
        </filter>
        <text id="text-4" font-family="Montserrat-SemiBold, Montserrat" font-size="90" font-weight="500" fill="#000000" fill-opacity="0.697060752">
            <tspan x="107" y="112">Language Mentorship</tspan>
        </text>
        <filter x="-0.7%" y="-4.5%" width="101.4%" height="112.7%" filterUnits="objectBoundingBox" id="filter-5">
            <feOffset dx="0" dy="2" in="SourceAlpha" result="shadowOffsetOuter1"></feOffset>
            <feGaussianBlur stdDeviation="2" in="shadowOffsetOuter1" result="shadowBlurOuter1"></feGaussianBlur>
            <feColorMatrix values="0 0 0 0 0   0 0 0 0 0   0 0 0 0 0  0 0 0 0.5 0" type="matrix" in="shadowBlurOuter1"></feColorMatrix>
        </filter>
        <path d="M1281,197.390245 C1281,174.546615 1265.15704,156 1245.6448,156 L332.356156,156 C312.84258,156 297,174.546615 297,197.390245 L297,280.169841 C297,303.013472 312.84258,321.559639 332.356156,321.559639 L332.356156,388 L416.445168,321.559639 L1245.6448,321.559639 C1265.15704,321.559639 1281,303.013472 1281,280.169841 L1281,197.390245 Z" id="path-6"></path>
        <filter x="-5.4%" y="-22.8%" width="111.2%" height="152.0%" filterUnits="objectBoundingBox" id="filter-7">
            <feMorphology radius="5" operator="dilate" in="SourceAlpha" result="shadowSpreadOuter1"></feMorphology>
            <feOffset dx="2" dy="2" in="shadowSpreadOuter1" result="shadowOffsetOuter1"></feOffset>
            <feGaussianBlur stdDeviation="13" in="shadowOffsetOuter1" result="shadowBlurOuter1"></feGaussianBlur>
            <feComposite in="shadowBlurOuter1" in2="SourceAlpha" operator="out" result="shadowBlurOuter1"></feComposite>
            <feColorMatrix values="0 0 0 0 0   0 0 0 0 0   0 0 0 0 0  0 0 0 0.0755299388 0" type="matrix" in="shadowBlurOuter1"></feColorMatrix>
        </filter>
        <filter x="-4.3%" y="-18.3%" width="109.0%" height="143.0%" filterUnits="objectBoundingBox" id="filter-8">
            <feMorphology radius="8" operator="erode" in="SourceAlpha" result="shadowSpreadInner1"></feMorphology>
            <feGaussianBlur stdDeviation="4.5" in="shadowSpreadInner1" result="shadowBlurInner1"></feGaussianBlur>
            <feOffset dx="0" dy="0" in="shadowBlurInner1" result="shadowOffsetInner1"></feOffset>
            <feComposite in="shadowOffsetInner1" in2="SourceAlpha" operator="arithmetic" k2="-1" k3="1" result="shadowInnerInner1"></feComposite>
            <feColorMatrix values="0 0 0 0 0.419136224   0 0 0 0 0.893285779   0 0 0 0 0.445902731  0 0 0 0.490029502 0" type="matrix" in="shadowInnerInner1"></feColorMatrix>
        </filter>
        <path d="M372.425,248 C381.575,248 387.625,244.3 387.625,237.05 C387.625,233.4 385.725,231 382.675,229.95 C386.375,228.55 389.125,225.4 389.125,220.7 C389.125,215.65 385.075,213 378.075,213 L362.575,213 L355.575,248 L372.425,248 Z M374.725,228.25 L364.475,228.25 L366.725,217.05 L377.025,217.05 C381.375,217.05 383.925,218.45 383.925,221.5 C383.925,226 380.225,228.25 374.725,228.25 Z M372.775,243.95 L361.375,243.95 L363.675,232.3 L375.375,232.3 C380.075,232.3 382.675,233.55 382.675,237.1 C382.675,241.55 379.075,243.95 372.775,243.95 Z M397.575,248 L400.225,234.75 C401.425,228.65 404.925,225.85 410.225,225.85 C410.725,225.85 411.025,225.85 411.475,225.9 L412.375,221.25 C407.625,221.25 404.275,222.45 401.875,225.45 L402.625,221.5 L398.025,221.5 L392.775,248 L397.575,248 Z M422.325,216.4 C424.375,216.4 425.825,215 425.825,212.95 C425.825,211.45 424.525,210.15 422.775,210.15 C420.725,210.15 419.325,211.65 419.325,213.5 C419.325,215.1 420.575,216.4 422.325,216.4 Z M418.075,248 L423.325,221.5 L418.525,221.5 L413.275,248 L418.075,248 Z M438.875,248.3 C442.675,248.3 445.875,247 448.225,244.75 L447.575,248 L452.175,248 L459.575,210.9 L454.775,210.9 L451.775,226.05 C450.075,222.9 446.725,221.25 442.175,221.25 C433.575,221.25 427.175,227.75 427.175,236.85 C427.175,244 432.125,248.3 438.875,248.3 Z M439.925,244.1 C434.875,244.1 432.025,241.3 432.025,236.65 C432.025,230.1 436.425,225.45 442.375,225.45 C447.425,225.45 450.275,228.2 450.275,232.9 C450.275,239.45 445.925,244.1 439.925,244.1 Z M471.525,258 C480.325,258 485.475,254 487.375,244.4 L491.925,221.5 L487.375,221.5 L486.425,226.35 C484.675,222.85 480.875,221.25 476.525,221.25 C467.675,221.25 461.425,227.7 461.425,236.1 C461.425,242.8 466.225,246.9 473.225,246.9 C477.175,246.9 480.425,245.55 482.825,243.25 L482.425,245.15 C481.275,250.9 478.125,253.75 471.875,253.75 C467.725,253.75 464.125,252.45 462.075,250.55 L459.425,254.25 C462.275,256.65 466.475,258 471.525,258 Z M474.175,242.7 C469.225,242.7 466.275,240.1 466.275,235.8 C466.275,229.8 470.625,225.45 476.675,225.45 C481.675,225.45 484.575,228.05 484.575,232.3 C484.575,238.35 480.225,242.7 474.175,242.7 Z M504.875,216.4 C506.925,216.4 508.375,215 508.375,212.95 C508.375,211.45 507.075,210.15 505.325,210.15 C503.275,210.15 501.875,211.65 501.875,213.5 C501.875,215.1 503.125,216.4 504.875,216.4 Z M500.625,248 L505.875,221.5 L501.075,221.5 L495.825,248 L500.625,248 Z M514.575,248 L517.375,234 C518.525,228.3 522.025,225.55 527.175,225.55 C531.325,225.55 533.325,227.5 533.325,230.95 C533.325,231.6 533.225,232.35 533.075,233.15 L530.125,248 L534.925,248 L537.875,233.15 C538.075,232.05 538.175,231 538.175,230.05 C538.175,224.4 534.575,221.25 528.575,221.25 C524.775,221.25 521.425,222.4 518.975,224.9 L519.625,221.5 L515.025,221.5 L509.775,248 L514.575,248 Z M554.025,258 C562.825,258 567.975,254 569.875,244.4 L574.425,221.5 L569.875,221.5 L568.925,226.35 C567.175,222.85 563.375,221.25 559.025,221.25 C550.175,221.25 543.925,227.7 543.925,236.1 C543.925,242.8 548.725,246.9 555.725,246.9 C559.675,246.9 562.925,245.55 565.325,243.25 L564.925,245.15 C563.775,250.9 560.625,253.75 554.375,253.75 C550.225,253.75 546.625,252.45 544.575,250.55 L541.925,254.25 C544.775,256.65 548.975,258 554.025,258 Z M556.675,242.7 C551.725,242.7 548.775,240.1 548.775,235.8 C548.775,229.8 553.125,225.45 559.175,225.45 C564.175,225.45 567.075,228.05 567.075,232.3 C567.075,238.35 562.725,242.7 556.675,242.7 Z M600.875,248.3 C602.975,248.3 605.225,247.9 607.025,246.65 L606.025,243 C604.925,243.8 603.525,244.25 602.225,244.25 C599.825,244.25 598.725,243 598.725,240.95 C598.725,240.5 598.775,240.05 598.875,239.55 L601.725,225.45 L609.325,225.45 L610.125,221.5 L602.525,221.5 L603.675,215.7 L598.875,215.7 L597.725,221.5 L593.175,221.5 L592.425,225.45 L596.925,225.45 L594.075,239.65 C593.925,240.35 593.875,241.05 593.875,241.65 C593.875,245.8 596.725,248.3 600.875,248.3 Z M617.275,248 L620.075,234 C621.225,228.3 624.725,225.55 629.875,225.55 C634.025,225.55 636.025,227.5 636.025,230.95 C636.025,231.6 635.925,232.35 635.775,233.15 L632.825,248 L637.625,248 L640.575,233.15 C640.775,232.05 640.875,231 640.875,230.05 C640.875,224.4 637.275,221.25 631.275,221.25 C627.575,221.25 624.375,222.3 621.925,224.6 L624.675,210.9 L619.875,210.9 L612.475,248 L617.275,248 Z M659.175,248.3 C663.225,248.3 667.225,246.95 669.825,244.5 L667.775,241.05 C665.875,242.9 662.875,244.1 659.575,244.1 C653.875,244.1 651.175,241.4 651.175,236.55 L651.175,236.25 L672.925,236.25 C673.125,235.15 673.275,233.95 673.275,232.7 C673.275,225.55 668.575,221.25 661.425,221.25 C652.775,221.25 646.475,227.8 646.475,236.8 C646.475,243.8 651.325,248.3 659.175,248.3 Z M668.775,232.75 L651.675,232.75 C652.875,228.15 656.425,225.25 661.225,225.25 C665.925,225.25 669.025,227.9 668.775,232.75 Z M703.075,248.3 C707.825,248.3 712.225,246.25 714.675,242.85 L711.175,240.35 C709.325,242.85 706.425,244.1 703.275,244.1 C698.175,244.1 695.325,241.3 695.325,236.65 C695.325,230.1 699.725,225.45 705.725,225.45 C709.125,225.45 711.525,226.7 712.925,229.25 L716.975,227 C714.925,223.15 711.175,221.25 706.075,221.25 C696.975,221.25 690.475,227.9 690.475,236.85 C690.475,243.75 695.375,248.3 703.075,248.3 Z M731.475,248.3 C740.525,248.3 746.975,241.65 746.975,232.65 C746.975,225.7 742.125,221.25 734.575,221.25 C725.525,221.25 719.025,227.9 719.025,236.85 C719.025,243.75 723.925,248.3 731.475,248.3 Z M731.775,244.1 C726.725,244.1 723.875,241.3 723.875,236.65 C723.875,230.1 728.275,225.45 734.225,225.45 C739.275,225.45 742.125,228.2 742.125,232.9 C742.125,239.45 737.775,244.1 731.775,244.1 Z M755.625,248 L758.425,234 C759.575,228.3 762.825,225.55 767.725,225.55 C771.725,225.55 773.625,227.5 773.625,230.9 C773.625,231.6 773.525,232.35 773.375,233.15 L770.375,248 L775.175,248 L778.025,233.85 C779.175,228.25 782.475,225.55 787.325,225.55 C791.275,225.55 793.175,227.45 793.175,230.85 C793.175,231.55 793.075,232.3 792.925,233.15 L789.975,248 L794.775,248 L797.725,233.15 C797.925,232 798.075,230.95 798.075,230 C798.075,224.4 794.525,221.25 788.525,221.25 C784.125,221.25 780.425,222.8 777.725,225.95 C776.375,222.9 773.375,221.25 769.225,221.25 C765.625,221.25 762.425,222.35 760.025,224.8 L760.675,221.5 L756.075,221.5 L750.825,248 L755.625,248 Z M808.475,248 L811.275,234 C812.425,228.3 815.675,225.55 820.575,225.55 C824.575,225.55 826.475,227.5 826.475,230.9 C826.475,231.6 826.375,232.35 826.225,233.15 L823.225,248 L828.025,248 L830.875,233.85 C832.025,228.25 835.325,225.55 840.175,225.55 C844.125,225.55 846.025,227.45 846.025,230.85 C846.025,231.55 845.925,232.3 845.775,233.15 L842.825,248 L847.625,248 L850.575,233.15 C850.775,232 850.925,230.95 850.925,230 C850.925,224.4 847.375,221.25 841.375,221.25 C836.975,221.25 833.275,222.8 830.575,225.95 C829.225,222.9 826.225,221.25 822.075,221.25 C818.475,221.25 815.275,222.35 812.875,224.8 L813.525,221.5 L808.925,221.5 L803.675,248 L808.475,248 Z M867.775,248.3 C871.475,248.3 874.825,247.1 877.275,244.6 L876.625,248 L881.225,248 L886.475,221.5 L881.675,221.5 L878.875,235.55 C877.725,241.2 874.175,244 869.175,244 C865.125,244 863.125,242.05 863.125,238.65 C863.125,237.95 863.225,237.2 863.375,236.4 L866.325,221.5 L861.525,221.5 L858.575,236.35 C858.375,237.45 858.275,238.45 858.275,239.4 C858.275,245.05 861.975,248.3 867.775,248.3 Z M895.175,248 L897.975,234 C899.125,228.3 902.625,225.55 907.775,225.55 C911.925,225.55 913.925,227.5 913.925,230.95 C913.925,231.6 913.825,232.35 913.675,233.15 L910.725,248 L915.525,248 L918.475,233.15 C918.675,232.05 918.775,231 918.775,230.05 C918.775,224.4 915.175,221.25 909.175,221.25 C905.375,221.25 902.025,222.4 899.575,224.9 L900.225,221.5 L895.625,221.5 L890.375,248 L895.175,248 Z M933.475,216.4 C935.525,216.4 936.975,215 936.975,212.95 C936.975,211.45 935.675,210.15 933.925,210.15 C931.875,210.15 930.475,211.65 930.475,213.5 C930.475,215.1 931.725,216.4 933.475,216.4 Z M929.225,248 L934.475,221.5 L929.675,221.5 L924.425,248 L929.225,248 Z M950.925,248.3 C955.675,248.3 960.075,246.25 962.525,242.85 L959.025,240.35 C957.175,242.85 954.275,244.1 951.125,244.1 C946.025,244.1 943.175,241.3 943.175,236.65 C943.175,230.1 947.575,225.45 953.575,225.45 C956.975,225.45 959.375,226.7 960.775,229.25 L964.825,227 C962.775,223.15 959.025,221.25 953.925,221.25 C944.825,221.25 938.325,227.9 938.325,236.85 C938.325,243.75 943.225,248.3 950.925,248.3 Z M978.575,248.3 C982.375,248.3 985.575,247 987.925,244.75 L987.275,248 L991.875,248 L997.125,221.5 L992.325,221.5 L991.425,226 C989.725,222.9 986.425,221.25 981.875,221.25 C973.275,221.25 966.875,227.75 966.875,236.85 C966.875,244 971.825,248.3 978.575,248.3 Z M979.625,244.1 C974.575,244.1 971.725,241.3 971.725,236.65 C971.725,230.1 976.125,225.45 982.075,225.45 C987.125,225.45 989.975,228.2 989.975,232.9 C989.975,239.45 985.625,244.1 979.625,244.1 Z M1010.125,248.3 C1012.225,248.3 1014.475,247.9 1016.275,246.65 L1015.275,243 C1014.175,243.8 1012.775,244.25 1011.475,244.25 C1009.075,244.25 1007.975,243 1007.975,240.95 C1007.975,240.5 1008.025,240.05 1008.125,239.55 L1010.975,225.45 L1018.575,225.45 L1019.375,221.5 L1011.775,221.5 L1012.925,215.7 L1008.125,215.7 L1006.975,221.5 L1002.425,221.5 L1001.675,225.45 L1006.175,225.45 L1003.325,239.65 C1003.175,240.35 1003.125,241.05 1003.125,241.65 C1003.125,245.8 1005.975,248.3 1010.125,248.3 Z M1030.775,216.4 C1032.825,216.4 1034.275,215 1034.275,212.95 C1034.275,211.45 1032.975,210.15 1031.225,210.15 C1029.175,210.15 1027.775,211.65 1027.775,213.5 C1027.775,215.1 1029.025,216.4 1030.775,216.4 Z M1026.525,248 L1031.775,221.5 L1026.975,221.5 L1021.725,248 L1026.525,248 Z M1048.075,248.3 C1057.125,248.3 1063.575,241.65 1063.575,232.65 C1063.575,225.7 1058.725,221.25 1051.175,221.25 C1042.125,221.25 1035.625,227.9 1035.625,236.85 C1035.625,243.75 1040.525,248.3 1048.075,248.3 Z M1048.375,244.1 C1043.325,244.1 1040.475,241.3 1040.475,236.65 C1040.475,230.1 1044.875,225.45 1050.825,225.45 C1055.875,225.45 1058.725,228.2 1058.725,232.9 C1058.725,239.45 1054.375,244.1 1048.375,244.1 Z M1072.225,248 L1075.025,234 C1076.175,228.3 1079.675,225.55 1084.825,225.55 C1088.975,225.55 1090.975,227.5 1090.975,230.95 C1090.975,231.6 1090.875,232.35 1090.725,233.15 L1087.775,248 L1092.575,248 L1095.525,233.15 C1095.725,232.05 1095.825,231 1095.825,230.05 C1095.825,224.4 1092.225,221.25 1086.225,221.25 C1082.425,221.25 1079.075,222.4 1076.625,224.9 L1077.275,221.5 L1072.675,221.5 L1067.425,248 L1072.225,248 Z M1125.125,258 C1133.925,258 1139.075,254 1140.975,244.4 L1145.525,221.5 L1140.975,221.5 L1140.025,226.35 C1138.275,222.85 1134.475,221.25 1130.125,221.25 C1121.275,221.25 1115.025,227.7 1115.025,236.1 C1115.025,242.8 1119.825,246.9 1126.825,246.9 C1130.775,246.9 1134.025,245.55 1136.425,243.25 L1136.025,245.15 C1134.875,250.9 1131.725,253.75 1125.475,253.75 C1121.325,253.75 1117.725,252.45 1115.675,250.55 L1113.025,254.25 C1115.875,256.65 1120.075,258 1125.125,258 Z M1127.775,242.7 C1122.825,242.7 1119.875,240.1 1119.875,235.8 C1119.875,229.8 1124.225,225.45 1130.275,225.45 C1135.275,225.45 1138.175,228.05 1138.175,232.3 C1138.175,238.35 1133.825,242.7 1127.775,242.7 Z M1161.075,248.3 C1164.875,248.3 1168.075,247 1170.425,244.75 L1169.775,248 L1174.375,248 L1179.625,221.5 L1174.825,221.5 L1173.925,226 C1172.225,222.9 1168.925,221.25 1164.375,221.25 C1155.775,221.25 1149.375,227.75 1149.375,236.85 C1149.375,244 1154.325,248.3 1161.075,248.3 Z M1162.125,244.1 C1157.075,244.1 1154.225,241.3 1154.225,236.65 C1154.225,230.1 1158.625,225.45 1164.575,225.45 C1169.625,225.45 1172.475,228.2 1172.475,232.9 C1172.475,239.45 1168.125,244.1 1162.125,244.1 Z M1186.375,257.7 L1189.175,243.5 C1190.875,246.6 1194.225,248.3 1198.775,248.3 C1207.375,248.3 1213.775,241.75 1213.775,232.65 C1213.775,225.5 1208.825,221.25 1202.075,221.25 C1198.225,221.25 1195.075,222.55 1192.725,224.8 L1193.375,221.5 L1188.775,221.5 L1181.575,257.7 L1186.375,257.7 Z M1198.575,244.1 C1193.525,244.1 1190.675,241.3 1190.675,236.65 C1190.675,230.1 1195.025,225.45 1201.025,225.45 C1206.075,225.45 1208.925,228.2 1208.925,232.9 C1208.925,239.45 1204.525,244.1 1198.575,244.1 Z M1219.175,248.3 C1221.025,248.3 1222.675,246.85 1222.675,244.7 C1222.675,242.8 1221.325,241.45 1219.525,241.45 C1217.575,241.45 1215.975,242.95 1215.975,245.1 C1215.975,246.9 1217.375,248.3 1219.175,248.3 Z" id="path-9"></path>
        <filter x="-0.8%" y="-10.4%" width="101.6%" height="129.3%" filterUnits="objectBoundingBox" id="filter-10">
            <feOffset dx="0" dy="2" in="SourceAlpha" result="shadowOffsetOuter1"></feOffset>
            <feGaussianBlur stdDeviation="2" in="shadowOffsetOuter1" result="shadowBlurOuter1"></feGaussianBlur>
            <feColorMatrix values="0 0 0 0 0.509765625   0 0 0 0 0.509765625   0 0 0 0 0.509765625  0 0 0 0.365248033 0" type="matrix" in="shadowBlurOuter1"></feColorMatrix>
        </filter>
    </defs>
    <g id="Page-1" stroke="none" stroke-width="1" fill="none" fill-rule="evenodd">
        <g id="Desktop-HD-Copy-7" transform="translate(-67.000000, -107.000000)">
            <g id="Group-7" transform="translate(101.000000, 141.000000)">
                <g id="Group-2">
                    <g id="Group-6" transform="translate(0.000000, -0.000000)">
                        <g id="Fill-1">
                            <use fill="black" fill-opacity="1" filter="url(#filter-2)" xlink:href="#path-1"></use>
                            <use fill="#FFFFFF" fill-rule="evenodd" xlink:href="#path-1"></use>
                            <use fill="black" fill-opacity="1" filter="url(#filter-3)" xlink:href="#path-1"></use>
                        </g>
                        <g id="Language-Mentorship" fill="#000000" fill-opacity="0.697060752">
                            <use filter="url(#filter-5)" xlink:href="#text-4"></use>
                            <use xlink:href="#text-4"></use>
                        </g>
                    </g>
                </g>
                <g id="Fill-1-Copy" transform="translate(789.000000, 272.000000) scale(-1, 1) translate(-789.000000, -272.000000) ">
                    <use fill="black" fill-opacity="1" filter="url(#filter-7)" xlink:href="#path-6"></use>
                    <use fill-opacity="0.677065122" fill="#3FEB41" fill-rule="evenodd" xlink:href="#path-6"></use>
                    <use fill="black" fill-opacity="1" filter="url(#filter-8)" xlink:href="#path-6"></use>
                </g>
                <g id="Bridgingthecommunicationgap." fill-rule="nonzero">
                    <use fill="black" fill-opacity="1" filter="url(#filter-10)" xlink:href="#path-9"></use>
                    <use fill="#FFFFFF" xlink:href="#path-9"></use>
                </g>
            </g>
        </g>
    </g>
</svg>