<?xml version="1.0" encoding="UTF-8"?>
<svg width="1349px" height="468px" viewBox="0 0 1349 468" version="1.1" xmlns="http://www.w3.org/2000/svg" xmlns:xlink="http://www.w3.org/1999/xlink">
    <!-- Generator: Sketch 64 (93537) - https://sketch.com -->
    <title>Group 7</title>
    <desc>Created with Sketch.</desc>
    <defs>
        <path d="M1239,55.8255272 C1239,25.014941 1219.05139,-5.68434189e-14 1194.48263,-5.68434189e-14 L44.5185739,-5.68434189e-14 C19.9481268,-5.68434189e-14 0,25.014941 0,55.8255272 L0,167.475377 C0,198.285963 19.9481268,223.300301 44.5185739,223.300301 L44.5185739,312.912435 L150.398947,223.300301 L1194.48263,223.300301 C1219.05139,223.300301 1239,198.285963 1239,167.475377 L1239,55.8255272 Z" id="path-1"></path>
        <filter x="-4.3%" y="-16.9%" width="108.9%" height="138.8%" filterUnits="objectBoundingBox" id="filter-2">
            <feMorphology radius="5" operator="dilate" in="SourceAlpha" result="shadowSpreadOuter1"></feMorphology>
            <feOffset dx="2" dy="2" in="shadowSpreadOuter1" result="shadowOffsetOuter1"></feOffset>
            <feGaussianBlur stdDeviation="13" in="shadowOffsetOuter1" result="shadowBlurOuter1"></feGaussianBlur>
            <feColorMatrix values="0 0 0 0 0   0 0 0 0 0   0 0 0 0 0  0 0 0 0.0755299388 0" type="matrix" in="shadowBlurOuter1"></feColorMatrix>
        </filter>
        <filter x="-3.4%" y="-13.6%" width="107.2%" height="132.1%" filterUnits="objectBoundingBox" id="filter-3">
            <feMorphology radius="8" operator="erode" in="SourceAlpha" result="shadowSpreadInner1"></feMorphology>
            <feGaussianBlur stdDeviation="4.5" in="shadowSpreadInner1" result="shadowBlurInner1"></feGaussianBlur>
            <feOffset dx="0" dy="0" in="shadowBlurInner1" result="shadowOffsetInner1"></feOffset>
            <feComposite in="shadowOffsetInner1" in2="SourceAlpha" operator="arithmetic" k2="-1" k3="1" result="shadowInnerInner1"></feComposite>
            <feColorMatrix values="0 0 0 0 0.594344429   0 0 0 0 0.594344429   0 0 0 0 0.594344429  0 0 0 0.0452906469 0" type="matrix" in="shadowInnerInner1"></feColorMatrix>
        </filter>
        <path d="M160.1,112 L160.1,102.1 L127.16,102.1 L127.16,49 L115.46,49 L115.46,112 L160.1,112 Z M182.78,112.63 C189.98,112.63 195.2,110.29 197.9,106.15 L197.9,112 L208.52,112 L208.52,83.83 C208.52,69.97 200.51,63.4 186.65,63.4 C178.91,63.4 171.44,65.38 166.31,69.34 L170.72,77.53 C174.32,74.56 179.9,72.76 185.3,72.76 C193.31,72.76 197.27,76.63 197.27,83.2 L197.27,83.92 L184.85,83.92 C170.27,83.92 164.87,90.22 164.87,98.23 C164.87,106.6 171.8,112.63 182.78,112.63 Z M185.12,104.44 C179.36,104.44 175.94,101.83 175.94,97.78 C175.94,94.27 178.01,91.39 185.66,91.39 L197.27,91.39 L197.27,96.97 C195.38,101.92 190.61,104.44 185.12,104.44 Z M234.17,112 L234.17,87.7 C234.17,78.07 239.57,73.21 247.58,73.21 C254.78,73.21 259.01,77.35 259.01,85.9 L259.01,112 L270.26,112 L270.26,84.46 C270.26,69.97 261.71,63.4 250.19,63.4 C243.17,63.4 237.32,65.74 233.63,70.15 L233.63,63.94 L222.92,63.94 L222.92,112 L234.17,112 Z M306.35,130.09 C323.18,130.09 332.27,122.17 332.27,104.71 L332.27,63.94 L321.56,63.94 L321.56,70.33 C317.6,65.56 311.66,63.4 304.91,63.4 C291.14,63.4 280.61,72.58 280.61,86.53 C280.61,100.48 291.14,109.84 304.91,109.84 C311.39,109.84 317.06,107.77 321.02,103.45 L321.02,105.97 C321.02,115.69 316.34,120.55 305.72,120.55 C299.06,120.55 292.22,118.3 287.99,114.79 L282.95,123.25 C288.44,127.75 297.35,130.09 306.35,130.09 Z M306.62,100.3 C298.07,100.3 291.95,94.72 291.95,86.53 C291.95,78.43 298.07,72.94 306.62,72.94 C315.08,72.94 321.2,78.43 321.2,86.53 C321.2,94.72 315.08,100.3 306.62,100.3 Z M367.37,112.63 C373.58,112.63 379.25,110.29 382.85,105.88 L382.85,112 L393.56,112 L393.56,63.94 L382.31,63.94 L382.31,88.24 C382.31,97.87 377,102.73 369.17,102.73 C362.06,102.73 357.92,98.59 357.92,89.86 L357.92,63.94 L346.67,63.94 L346.67,91.39 C346.67,105.88 355.04,112.63 367.37,112.63 Z M422.81,112.63 C430.01,112.63 435.23,110.29 437.93,106.15 L437.93,112 L448.55,112 L448.55,83.83 C448.55,69.97 440.54,63.4 426.68,63.4 C418.94,63.4 411.47,65.38 406.34,69.34 L410.75,77.53 C414.35,74.56 419.93,72.76 425.33,72.76 C433.34,72.76 437.3,76.63 437.3,83.2 L437.3,83.92 L424.88,83.92 C410.3,83.92 404.9,90.22 404.9,98.23 C404.9,106.6 411.83,112.63 422.81,112.63 Z M425.15,104.44 C419.39,104.44 415.97,101.83 415.97,97.78 C415.97,94.27 418.04,91.39 425.69,91.39 L437.3,91.39 L437.3,96.97 C435.41,101.92 430.64,104.44 425.15,104.44 Z M484.73,130.09 C501.56,130.09 510.65,122.17 510.65,104.71 L510.65,63.94 L499.94,63.94 L499.94,70.33 C495.98,65.56 490.04,63.4 483.29,63.4 C469.52,63.4 458.99,72.58 458.99,86.53 C458.99,100.48 469.52,109.84 483.29,109.84 C489.77,109.84 495.44,107.77 499.4,103.45 L499.4,105.97 C499.4,115.69 494.72,120.55 484.1,120.55 C477.44,120.55 470.6,118.3 466.37,114.79 L461.33,123.25 C466.82,127.75 475.73,130.09 484.73,130.09 Z M485,100.3 C476.45,100.3 470.33,94.72 470.33,86.53 C470.33,78.43 476.45,72.94 485,72.94 C493.46,72.94 499.58,78.43 499.58,86.53 C499.58,94.72 493.46,100.3 485,100.3 Z M548,112.63 C556.28,112.63 563.03,109.93 567.35,104.8 L561.32,97.87 C557.9,101.38 553.67,103.09 548.27,103.09 C539.9,103.09 534.05,98.59 532.7,91.57 L570.41,91.57 C570.5,90.49 570.59,89.14 570.59,88.24 C570.59,73.21 560.33,63.4 546.29,63.4 C531.98,63.4 521.45,73.66 521.45,87.97 C521.45,102.28 531.89,112.63 548,112.63 Z M559.88,84.1 L532.61,84.1 C533.69,77.08 539,72.4 546.29,72.4 C553.67,72.4 558.98,77.17 559.88,84.1 Z M618.47,112 L618.47,70.78 L639.17,104.8 L644.39,104.8 L665.09,70.24 L665.18,112 L676.25,112 L676.16,49 L666.53,49 L641.96,90.76 L616.94,49 L607.31,49 L607.31,112 L618.47,112 Z M714.77,112.63 C723.05,112.63 729.8,109.93 734.12,104.8 L728.09,97.87 C724.67,101.38 720.44,103.09 715.04,103.09 C706.67,103.09 700.82,98.59 699.47,91.57 L737.18,91.57 C737.27,90.49 737.36,89.14 737.36,88.24 C737.36,73.21 727.1,63.4 713.06,63.4 C698.75,63.4 688.22,73.66 688.22,87.97 C688.22,102.28 698.66,112.63 714.77,112.63 Z M726.65,84.1 L699.38,84.1 C700.46,77.08 705.77,72.4 713.06,72.4 C720.44,72.4 725.75,77.17 726.65,84.1 Z M759.41,112 L759.41,87.7 C759.41,78.07 764.81,73.21 772.82,73.21 C780.02,73.21 784.25,77.35 784.25,85.9 L784.25,112 L795.5,112 L795.5,84.46 C795.5,69.97 786.95,63.4 775.43,63.4 C768.41,63.4 762.56,65.74 758.87,70.15 L758.87,63.94 L748.16,63.94 L748.16,112 L759.41,112 Z M827.9,112.63 C831.95,112.63 836,111.55 838.7,109.39 L835.55,101.38 C833.84,102.73 831.59,103.36 829.25,103.36 C824.93,103.36 822.59,100.84 822.59,96.16 L822.59,73.3 L835.46,73.3 L835.46,64.3 L822.59,64.3 L822.59,53.32 L811.34,53.32 L811.34,64.3 L803.42,64.3 L803.42,73.3 L811.34,73.3 L811.34,96.43 C811.34,107.05 817.37,112.63 827.9,112.63 Z M869.57,112.63 C884.51,112.63 895.22,102.37 895.22,87.97 C895.22,73.57 884.51,63.4 869.57,63.4 C854.81,63.4 844.01,73.57 844.01,87.97 C844.01,102.37 854.81,112.63 869.57,112.63 Z M869.57,103 C861.47,103 855.35,97.15 855.35,87.97 C855.35,78.79 861.47,72.94 869.57,72.94 C877.76,72.94 883.88,78.79 883.88,87.97 C883.88,97.15 877.76,103 869.57,103 Z M917.27,112 L917.27,88.69 C917.27,78.88 922.67,73.84 931.22,73.84 C932.03,73.84 932.84,73.93 933.83,74.11 L933.83,63.4 C925.82,63.4 919.97,65.92 916.73,70.96 L916.73,63.94 L906.02,63.94 L906.02,112 L917.27,112 Z M958.67,112.63 C972.17,112.63 980.45,106.78 980.45,97.78 C980.45,78.97 950.75,87.61 950.75,77.89 C950.75,74.74 953.99,72.49 960.83,72.49 C965.42,72.49 970.01,73.39 974.6,76.09 L978.92,67.54 C974.6,64.93 967.31,63.4 960.92,63.4 C947.96,63.4 939.77,69.34 939.77,78.43 C939.77,97.6 969.47,88.96 969.47,98.14 C969.47,101.47 966.5,103.45 959.39,103.45 C953.36,103.45 946.88,101.47 942.65,98.68 L938.33,107.23 C942.65,110.29 950.66,112.63 958.67,112.63 Z M1001.42,112 L1001.42,87.7 C1001.42,78.07 1006.82,73.21 1014.83,73.21 C1022.03,73.21 1026.26,77.35 1026.26,85.9 L1026.26,112 L1037.51,112 L1037.51,84.46 C1037.51,69.97 1028.96,63.4 1017.44,63.4 C1010.78,63.4 1005.11,65.56 1001.42,69.52 L1001.42,45.22 L990.17,45.22 L990.17,112 L1001.42,112 Z M1057.49,56.02 C1061.72,56.02 1064.69,52.96 1064.69,49 C1064.69,45.31 1061.63,42.52 1057.49,42.52 C1053.35,42.52 1050.29,45.49 1050.29,49.27 C1050.29,53.05 1053.35,56.02 1057.49,56.02 Z M1063.07,112 L1063.07,63.94 L1051.82,63.94 L1051.82,112 L1063.07,112 Z M1089.08,129.46 L1089.08,106.15 C1092.95,110.56 1098.35,112.63 1104.47,112.63 C1118.51,112.63 1128.86,102.91 1128.86,87.97 C1128.86,73.12 1118.51,63.4 1104.47,63.4 C1097.9,63.4 1092.32,65.65 1088.54,70.24 L1088.54,63.94 L1077.83,63.94 L1077.83,129.46 L1089.08,129.46 Z M1103.21,103 C1095.11,103 1088.9,97.15 1088.9,87.97 C1088.9,78.79 1095.11,72.94 1103.21,72.94 C1111.31,72.94 1117.43,78.79 1117.43,87.97 C1117.43,97.15 1111.31,103 1103.21,103 Z" id="path-4"></path>
        <filter x="-0.7%" y="-5.7%" width="101.4%" height="116.0%" filterUnits="objectBoundingBox" id="filter-5">
            <feOffset dx="0" dy="2" in="SourceAlpha" result="shadowOffsetOuter1"></feOffset>
            <feGaussianBlur stdDeviation="2" in="shadowOffsetOuter1" result="shadowBlurOuter1"></feGaussianBlur>
            <feComposite in="shadowBlurOuter1" in2="SourceAlpha" operator="out" result="shadowBlurOuter1"></feComposite>
            <feColorMatrix values="0 0 0 0 0   0 0 0 0 0   0 0 0 0 0  0 0 0 0.5 0" type="matrix" in="shadowBlurOuter1"></feColorMatrix>
        </filter>
        <path d="M1281,197.390245 C1281,174.546615 1266.20358,156 1247.98025,156 L395.020637,156 C376.796068,156 362,174.546615 362,197.390245 L362,280.169841 C362,303.013472 376.796068,321.559639 395.020637,321.559639 L395.020637,388 L473.55499,321.559639 L1247.98025,321.559639 C1266.20358,321.559639 1281,303.013472 1281,280.169841 L1281,197.390245 Z" id="path-6"></path>
        <filter x="-5.8%" y="-22.8%" width="112.0%" height="152.4%" filterUnits="objectBoundingBox" id="filter-7">
            <feMorphology radius="5" operator="dilate" in="SourceAlpha" result="shadowSpreadOuter1"></feMorphology>
            <feOffset dx="2" dy="2" in="shadowSpreadOuter1" result="shadowOffsetOuter1"></feOffset>
            <feGaussianBlur stdDeviation="13" in="shadowOffsetOuter1" result="shadowBlurOuter1"></feGaussianBlur>
            <feComposite in="shadowBlurOuter1" in2="SourceAlpha" operator="out" result="shadowBlurOuter1"></feComposite>
            <feColorMatrix values="0 0 0 0 0   0 0 0 0 0   0 0 0 0 0  0 0 0 0.0755299388 0" type="matrix" in="shadowBlurOuter1"></feColorMatrix>
        </filter>
        <filter x="-4.6%" y="-18.3%" width="109.7%" height="143.3%" filterUnits="objectBoundingBox" id="filter-8">
            <feMorphology radius="8" operator="erode" in="SourceAlpha" result="shadowSpreadInner1"></feMorphology>
            <feGaussianBlur stdDeviation="4.5" in="shadowSpreadInner1" result="shadowBlurInner1"></feGaussianBlur>
            <feOffset dx="0" dy="0" in="shadowBlurInner1" result="shadowOffsetInner1"></feOffset>
            <feComposite in="shadowOffsetInner1" in2="SourceAlpha" operator="arithmetic" k2="-1" k3="1" result="shadowInnerInner1"></feComposite>
            <feColorMatrix values="0 0 0 0 0.419136224   0 0 0 0 0.893285779   0 0 0 0 0.445902731  0 0 0 0.490029502 0" type="matrix" in="shadowInnerInner1"></feColorMatrix>
        </filter>
        <path d="M528.56,262 L529.92,255.04 L499.52,255.04 L509.36,206 L501.36,206 L490.16,262 L528.56,262 Z M556.88,262.48 C563.36,262.48 569.76,260.32 573.92,256.4 L570.64,250.88 C567.6,253.84 562.8,255.76 557.52,255.76 C548.4,255.76 544.08,251.44 544.08,243.68 L544.08,243.2 L578.88,243.2 C579.2,241.44 579.44,239.52 579.44,237.52 C579.44,226.08 571.92,219.2 560.48,219.2 C546.64,219.2 536.56,229.68 536.56,244.08 C536.56,255.28 544.32,262.48 556.88,262.48 Z M572.24,237.6 L544.88,237.6 C546.8,230.24 552.48,225.6 560.16,225.6 C567.68,225.6 572.64,229.84 572.24,237.6 Z M600.08,262.48 C603.44,262.48 607.04,261.84 609.92,259.84 L608.32,254 C606.56,255.28 604.32,256 602.24,256 C598.4,256 596.64,254 596.64,250.72 C596.64,250 596.72,249.28 596.88,248.48 L601.44,225.92 L613.6,225.92 L614.88,219.6 L602.72,219.6 L604.56,210.32 L596.88,210.32 L595.04,219.6 L587.76,219.6 L586.56,225.92 L593.76,225.92 L589.2,248.64 C588.96,249.76 588.88,250.88 588.88,251.84 C588.88,258.48 593.44,262.48 600.08,262.48 Z M632,262.48 C643.52,262.48 651.44,257.52 651.44,248.72 C651.44,234.64 628,240.64 628,232.08 C628,228.4 631.68,225.76 638.8,225.76 C643.12,225.76 647.84,226.72 651.28,229.12 L654.32,223.04 C650.88,220.64 645.12,219.2 639.52,219.2 C627.92,219.2 620.32,224.56 620.32,232.96 C620.32,247.28 643.84,241.36 643.84,249.6 C643.84,253.52 640.08,255.84 632.72,255.84 C626.96,255.84 621.28,254.16 618,251.52 L614.56,257.6 C618,260.4 624.8,262.48 632,262.48 Z M694.8,262.48 C698.16,262.48 701.76,261.84 704.64,259.84 L703.04,254 C701.28,255.28 699.04,256 696.96,256 C693.12,256 691.36,254 691.36,250.72 C691.36,250 691.44,249.28 691.6,248.48 L696.16,225.92 L708.32,225.92 L709.6,219.6 L697.44,219.6 L699.28,210.32 L691.6,210.32 L689.76,219.6 L682.48,219.6 L681.28,225.92 L688.48,225.92 L683.92,248.64 C683.68,249.76 683.6,250.88 683.6,251.84 C683.6,258.48 688.16,262.48 694.8,262.48 Z M732,262.48 C738.08,262.48 743.2,260.4 746.96,256.8 L745.92,262 L753.28,262 L761.68,219.6 L754,219.6 L752.56,226.8 C749.84,221.84 744.56,219.2 737.28,219.2 C723.52,219.2 713.28,229.6 713.28,244.16 C713.28,255.6 721.2,262.48 732,262.48 Z M733.68,255.76 C725.6,255.76 721.04,251.28 721.04,243.84 C721.04,233.36 728.08,225.92 737.6,225.92 C745.68,225.92 750.24,230.32 750.24,237.84 C750.24,248.32 743.28,255.76 733.68,255.76 Z M775.6,262 L787.44,202.64 L779.76,202.64 L767.92,262 L775.6,262 Z M797.92,262 L800.32,250.08 L810.72,242 L822.96,262 L831.84,262 L816.72,237.44 L839.36,219.6 L828.56,219.6 L802.24,240.4 L809.76,202.64 L802.08,202.64 L790.24,262 L797.92,262 Z M878.88,262.48 C884.96,262.48 890.08,260.4 893.84,256.8 L892.8,262 L900.16,262 L908.56,219.6 L900.88,219.6 L899.44,226.8 C896.72,221.84 891.44,219.2 884.16,219.2 C870.4,219.2 860.16,229.6 860.16,244.16 C860.16,255.6 868.08,262.48 878.88,262.48 Z M880.56,255.76 C872.48,255.76 867.92,251.28 867.92,243.84 C867.92,233.36 874.96,225.92 884.48,225.92 C892.56,225.92 897.12,230.32 897.12,237.84 C897.12,248.32 890.16,255.76 880.56,255.76 Z M939.2,262.48 C952.96,262.48 963.2,252 963.2,237.44 C963.2,226 955.28,219.2 944.48,219.2 C938.56,219.2 933.68,221.12 929.92,224.48 L934.32,202.64 L926.64,202.64 L914.8,262 L922.08,262 L923.68,254.32 C926.32,259.6 931.68,262.48 939.2,262.48 Z M938.88,255.76 C930.8,255.76 926.24,251.28 926.24,243.84 C926.24,233.36 933.2,225.92 942.8,225.92 C950.88,225.92 955.44,230.32 955.44,237.84 C955.44,248.32 948.4,255.76 938.88,255.76 Z M989.2,262.48 C1003.68,262.48 1014,251.84 1014,237.44 C1014,226.32 1006.24,219.2 994.16,219.2 C979.68,219.2 969.28,229.84 969.28,244.16 C969.28,255.2 977.12,262.48 989.2,262.48 Z M989.68,255.76 C981.6,255.76 977.04,251.28 977.04,243.84 C977.04,233.36 984.08,225.92 993.6,225.92 C1001.68,225.92 1006.24,230.32 1006.24,237.84 C1006.24,248.32 999.28,255.76 989.68,255.76 Z M1038.16,262.48 C1044.08,262.48 1049.44,260.56 1053.36,256.56 L1052.32,262 L1059.68,262 L1068.08,219.6 L1060.4,219.6 L1055.92,242.08 C1054.08,251.12 1048.4,255.6 1040.4,255.6 C1033.92,255.6 1030.72,252.48 1030.72,247.04 C1030.72,245.92 1030.88,244.72 1031.12,243.44 L1035.84,219.6 L1028.16,219.6 L1023.44,243.36 C1023.12,245.12 1022.96,246.72 1022.96,248.24 C1022.96,257.28 1028.88,262.48 1038.16,262.48 Z M1088.88,262.48 C1092.24,262.48 1095.84,261.84 1098.72,259.84 L1097.12,254 C1095.36,255.28 1093.12,256 1091.04,256 C1087.2,256 1085.44,254 1085.44,250.72 C1085.44,250 1085.52,249.28 1085.68,248.48 L1090.24,225.92 L1102.4,225.92 L1103.68,219.6 L1091.52,219.6 L1093.36,210.32 L1085.68,210.32 L1083.84,219.6 L1076.56,219.6 L1075.36,225.92 L1082.56,225.92 L1078,248.64 C1077.76,249.76 1077.68,250.88 1077.68,251.84 C1077.68,258.48 1082.24,262.48 1088.88,262.48 Z M1143.44,211.44 C1146.72,211.44 1149.04,209.2 1149.04,205.92 C1149.04,203.52 1146.96,201.44 1144.16,201.44 C1140.88,201.44 1138.64,203.84 1138.64,206.8 C1138.64,209.36 1140.64,211.44 1143.44,211.44 Z M1136.64,262 L1145.04,219.6 L1137.36,219.6 L1128.96,262 L1136.64,262 Z M1165.84,262.48 C1169.2,262.48 1172.8,261.84 1175.68,259.84 L1174.08,254 C1172.32,255.28 1170.08,256 1168,256 C1164.16,256 1162.4,254 1162.4,250.72 C1162.4,250 1162.48,249.28 1162.64,248.48 L1167.2,225.92 L1179.36,225.92 L1180.64,219.6 L1168.48,219.6 L1170.32,210.32 L1162.64,210.32 L1160.8,219.6 L1153.52,219.6 L1152.32,225.92 L1159.52,225.92 L1154.96,248.64 C1154.72,249.76 1154.64,250.88 1154.64,251.84 C1154.64,258.48 1159.2,262.48 1165.84,262.48 Z M1186.88,262.48 C1189.84,262.48 1192.48,260.16 1192.48,256.72 C1192.48,253.68 1190.32,251.52 1187.44,251.52 C1184.32,251.52 1181.76,253.92 1181.76,257.36 C1181.76,260.24 1184,262.48 1186.88,262.48 Z" id="path-9"></path>
        <filter x="-1.0%" y="-8.2%" width="102.0%" height="122.9%" filterUnits="objectBoundingBox" id="filter-10">
            <feOffset dx="0" dy="2" in="SourceAlpha" result="shadowOffsetOuter1"></feOffset>
            <feGaussianBlur stdDeviation="2" in="shadowOffsetOuter1" result="shadowBlurOuter1"></feGaussianBlur>
            <feColorMatrix values="0 0 0 0 0.509765625   0 0 0 0 0.509765625   0 0 0 0 0.509765625  0 0 0 0.365248033 0" type="matrix" in="shadowBlurOuter1"></feColorMatrix>
        </filter>
    </defs>
    <g id="Page-1" stroke="none" stroke-width="1" fill="none" fill-rule="evenodd">
        <g id="Desktop-HD-Copy-7" transform="translate(-67.000000, -107.000000)">
            <g id="Group-7" transform="translate(101.000000, 141.000000)">
                <g id="Group-2">
                    <g id="Group-6" transform="translate(0.000000, -0.000000)">
                        <g id="Fill-1">
                            <use fill="black" fill-opacity="1" filter="url(#filter-2)" xlink:href="#path-1"></use>
                            <use fill="#FFFFFF" fill-rule="evenodd" xlink:href="#path-1"></use>
                            <use fill="black" fill-opacity="1" filter="url(#filter-3)" xlink:href="#path-1"></use>
                        </g>
                        <g id="LanguageMentorship" fill-rule="nonzero">
                            <use fill="black" fill-opacity="1" filter="url(#filter-5)" xlink:href="#path-4"></use>
                            <use fill-opacity="0.697060752" fill="#000000" xlink:href="#path-4"></use>
                        </g>
                    </g>
                </g>
                <g id="Fill-1-Copy" transform="translate(821.500000, 272.000000) scale(-1, 1) translate(-821.500000, -272.000000) ">
                    <use fill="black" fill-opacity="1" filter="url(#filter-7)" xlink:href="#path-6"></use>
                    <use fill-opacity="0.677065122" fill="#3FEB41" fill-rule="evenodd" xlink:href="#path-6"></use>
                    <use fill="black" fill-opacity="1" filter="url(#filter-8)" xlink:href="#path-6"></use>
                </g>
                <g id="Letstalkaboutit." fill-rule="nonzero">
                    <use fill="black" fill-opacity="1" filter="url(#filter-10)" xlink:href="#path-9"></use>
                    <use fill="#FFFFFF" xlink:href="#path-9"></use>
                </g>
            </g>
        </g>
    </g>
</svg>